<svg xmlns="http://www.w3.org/2000/svg" viewBox="0 0 805.57 888.35"><defs><style>.cls-1{fill:#fafafa;}</style></defs><g id="Camada_2" data-name="Camada 2"><g id="Camada_3" data-name="Camada 3"><polygon class="cls-1" points="739.13 238.86 739.13 238.86 739.13 492.74 739.13 492.74 739.13 238.86"/><path class="cls-1" d="M369.16,415.38l-28.07-16.22-39.56-22.81L262,353.49l-39.66-22.87-39.66-22.91L143,284.79l-39.76-23-39.76-23V590.32L143,636.64V376.35l39.7,22.86V659.76L262,706v-261l34.09,19.62a10.92,10.92,0,0,1,5.47,9.45V729l79.06,46V435.17A22.84,22.84,0,0,0,369.16,415.38Z"/><path class="cls-1" d="M699.37,261.83l-39.76,23-39.7,22.92L580.2,330.62l-39.61,22.87L501,376.35l-39.55,22.81-21.25,12.27A36.54,36.54,0,0,0,422,443.06v332L501,729V650.47l39.56-22.72L580.2,605l39.71-22.76,39.7-22.76,61.17-35.1a36.53,36.53,0,0,0,18.35-31.68V238.86ZM659.61,458.66a16,16,0,0,1-8,13.86l-31.68,18.2L580.2,513.59l-39.61,22.76L501,559.06V477a16,16,0,0,1,8-13.86l31.55-18.15,39.61-22.81,39.71-22.92,39.7-22.86Z"/><polygon class="cls-1" points="739.06 195.87 697.08 220.18 655.01 244.4 613.4 220.27 571.51 195.87 529.63 171.55 487.56 147.06 403.42 98.25 361.35 122.57 277.03 171.19 234.87 195.59 192.62 219.91 149.37 244.86 63.5 195.32 401.78 0 403.05 0.73 445.4 25.22 487.74 49.63 518.34 67.29 529.81 74.03 571.79 98.43 613.76 122.93 655.65 147.33 697.45 171.65 697.54 171.65 739.06 195.87"/><rect class="cls-1" x="334.93" y="207.05" width="57.58" height="57.58"/><rect class="cls-1" x="410.05" y="207.05" width="57.58" height="57.58"/><rect class="cls-1" x="334.93" y="281.42" width="57.58" height="57.58"/><rect class="cls-1" x="410.05" y="281.42" width="57.58" height="57.58"/><path class="cls-1" d="M12.08,655.86v22.87L0,671.76V615.92l21.49,12.41q10.7,6.18,10.7,17.57v6.47q0,6.9-4.92,6a12.7,12.7,0,0,1,4.32,9.57V690L19.5,683V661.87a2.93,2.93,0,0,0-1.64-2.67Zm0-24.77v16.32l6.39,3.68a1.19,1.19,0,0,0,1.16.16,1,1,0,0,0,.48-.94V637.45a2.89,2.89,0,0,0-.48-1.48,3.24,3.24,0,0,0-1.16-1.19Z"/><path class="cls-1" d="M60.67,696.78l13.38,7.72v10l-25.46-14.7V644l25.46,14.7v9.84l-13.38-7.72v13.12l12.51,7.22v9.49L60.67,683.4Z"/><path class="cls-1" d="M101.75,708.58V730.5l-12.08-7V667.69l25.2,14.55v10.44l-13.12-7.57v13.38L114,705.56v10.1Z"/><path class="cls-1" d="M163.46,720.82V755.6q0,11.39-10.71,5.21l-11.47-6.62q-10.71-6.18-10.71-17.57V701.84q0-11.4,10.71-5.22l11.47,6.63Q163.46,709.43,163.46,720.82ZM151.37,750V712.38a2.94,2.94,0,0,0-.47-1.48,3.37,3.37,0,0,0-1.17-1.2l-5.43-3.13a1.2,1.2,0,0,0-1.17-.16,1,1,0,0,0-.47.94V745a2.9,2.9,0,0,0,.47,1.49,3.42,3.42,0,0,0,1.17,1.19l5.43,3.13a1.2,1.2,0,0,0,1.17.16A1,1,0,0,0,151.37,750Z"/><path class="cls-1" d="M193.06,760.35v22.87l-12.08-7V720.41l21.48,12.4q10.71,6.18,10.71,17.57v6.48q0,6.9-4.92,6a12.72,12.72,0,0,1,4.31,9.57v22.09l-12.08-7V766.36a3,3,0,0,0-1.64-2.67Zm0-24.77v16.31l6.38,3.69a1.2,1.2,0,0,0,1.17.15,1,1,0,0,0,.47-.93V741.94a3,3,0,0,0-.47-1.48,3.26,3.26,0,0,0-1.17-1.19Z"/><path class="cls-1" d="M320.7,800.21q10.69,6.18,10.7,17.57v45.31l-12.08-7V837.39l-8.72-5v18.72l-12.08-7V798.8q0-11.4,10.7-5.21ZM310.6,823l8.72,5V809.34a2.86,2.86,0,0,0-.48-1.48,3.16,3.16,0,0,0-1.16-1.19l-5.44-3.14a1.19,1.19,0,0,0-1.16-.16,1,1,0,0,0-.48.94Z"/><path class="cls-1" d="M380,850l-11.48-6.63V839a2.86,2.86,0,0,0-.48-1.48,3.16,3.16,0,0,0-1.16-1.19l-4.75-2.74a1.19,1.19,0,0,0-1.16-.16.94.94,0,0,0-.48.93v9.93a2.89,2.89,0,0,0,.48,1.48,3.16,3.16,0,0,0,1.16,1.19l7.77,4.49q10.69,6.35,10.7,17.57v12q0,11.4-10.7,5.22l-10.18-5.88Q349,874.12,349,862.73v-5.79l11.48,6.63v6.22a2.89,2.89,0,0,0,.48,1.48,3.24,3.24,0,0,0,1.16,1.19l5.35,3.09a1.22,1.22,0,0,0,1.17.15,1,1,0,0,0,.47-.93v-11a2.94,2.94,0,0,0-.47-1.48,3.37,3.37,0,0,0-1.17-1.2l-7.76-4.48Q349,850.47,349,839.08V828q0-11.4,10.71-5.22l9.58,5.53Q380,834.44,380,845.83Z"/><path class="cls-1" d="M270.9,771.46l-6.38-3.69-18-10.36-6.38-3.69q-10.71-6.18-10.7,5.22v45.31l12.08,7V764.88a1,1,0,0,1,.47-.94,1.2,1.2,0,0,1,1.17.16l4.66,2.69A3.16,3.16,0,0,1,249,768a2.89,2.89,0,0,1,.48,1.48v46.35l12.08,7V776.44a1,1,0,0,1,.48-.94,1.19,1.19,0,0,1,1.16.16l4.66,2.69a3.26,3.26,0,0,1,1.17,1.19,3,3,0,0,1,.47,1.48v46.35l12.08,7V789Q281.6,777.65,270.9,771.46Z"/><path class="cls-1" d="M439.1,870.15v-8.62l9.46-5.46v7.24q0,11.38-8.82,16.47l-9,5.17Q422,890,422,878.66V843.93q0-11.37,8.81-16.46l9-5.17q8.82-5.1,8.82,6.28v5.26l-9.46,5.46v-6.72a1.14,1.14,0,0,0-.39-1,.81.81,0,0,0-1,0l-4.48,2.59a2.6,2.6,0,0,0-1,1.07,3.08,3.08,0,0,0-.39,1.43V874.3a1.15,1.15,0,0,0,.39,1,.83.83,0,0,0,1,0l4.48-2.59a2.48,2.48,0,0,0,1-1.07A3.05,3.05,0,0,0,439.1,870.15Z"/><path class="cls-1" d="M488.72,805.39v34.73q0,11.39-8.81,16.47l-9.46,5.46q-8.81,5.09-8.81-6.29V821q0-11.37,8.81-16.46l9.46-5.46Q488.71,794,488.72,805.39Zm-10,41.86V809.67a1.16,1.16,0,0,0-.39-1,.83.83,0,0,0-1,0l-4.48,2.59a2.53,2.53,0,0,0-1,1.07,3.05,3.05,0,0,0-.39,1.43v37.57a1.16,1.16,0,0,0,.39,1,.83.83,0,0,0,1,0l4.48-2.59a2.53,2.53,0,0,0,1-1.07A3.05,3.05,0,0,0,478.77,847.25Z"/><path class="cls-1" d="M529.53,827.08l-9.95,5.75V786.55a1.14,1.14,0,0,0-.4-1,.81.81,0,0,0-1,0l-3.83,2.22a2.6,2.6,0,0,0-1,1.07,3.08,3.08,0,0,0-.39,1.43V836.6l-10,5.75V797.1q0-11.37,8.82-16.46l8.81-5.09q8.82-5.09,8.82,6.28Z"/><path class="cls-1" d="M568.84,763.27l-9.45,5.46v-4.39a1.14,1.14,0,0,0-.39-1,.81.81,0,0,0-1,0l-3.91,2.26a2.6,2.6,0,0,0-1,1.07,3,3,0,0,0-.4,1.43v9.92a1.13,1.13,0,0,0,.4,1,.83.83,0,0,0,1,0l6.39-3.7q8.82-4.9,8.82,6.29v12q0,11.37-8.82,16.47l-8.39,4.84q-8.8,5.08-8.81-6.29v-5.77l9.45-5.46v6.2a1.14,1.14,0,0,0,.4,1,.83.83,0,0,0,1,0l4.4-2.55a2.53,2.53,0,0,0,1-1.07,3.05,3.05,0,0,0,.39-1.43V788.53a1.17,1.17,0,0,0-.39-1,.83.83,0,0,0-1,0l-6.4,3.7q-8.8,5.09-8.81-6.29V773.87q0-11.37,8.81-16.46l7.9-4.56q8.81-5.08,8.81,6.29Z"/><path class="cls-1" d="M580.36,752.23V742l24.88-14.36v10.25l-7.47,4.31v45.51l-9.95,5.74v-45.5Z"/><path class="cls-1" d="M626.85,748.05v22.84l-10,5.75V720.88l17.7-10.22q8.82-5.1,8.81,6.28v6.47q0,6.89-4,11.13c2.37-.34,3.56,1.34,3.56,5v22.06l-10,5.75V746.25c0-1.15-.45-1.47-1.35-1Zm0-24.73v16.29l5.26-3a2.6,2.6,0,0,0,1-1.07,3.08,3.08,0,0,0,.39-1.43V721.23a1.17,1.17,0,0,0-.39-1,.83.83,0,0,0-1,0Z"/><path class="cls-1" d="M673.34,688.29l10-5.75v45.25q0,11.37-8.82,16.46l-8.81,5.09q-8.82,5.08-8.82-6.28V697.81l9.95-5.75v46.28a1.14,1.14,0,0,0,.39,1,.81.81,0,0,0,1,0l3.84-2.22a2.53,2.53,0,0,0,1-1.07,3.08,3.08,0,0,0,.39-1.43Z"/><path class="cls-1" d="M700.93,737.26l6.54-12-1.42.82q-8.82,5.09-8.82-6.29V685q0-11.37,8.82-16.46l9-5.18q8.82-5.08,8.82,6.29v5.26l-9.46,5.46v-6.72a1.17,1.17,0,0,0-.39-1,.83.83,0,0,0-1,0l-4.48,2.59a2.53,2.53,0,0,0-1,1.07,3.05,3.05,0,0,0-.39,1.43v37.58a1.15,1.15,0,0,0,.39,1,.83.83,0,0,0,1,0l4.48-2.59a2.53,2.53,0,0,0,1-1.07,3.05,3.05,0,0,0,.39-1.43v-8.62l9.46-5.46v7.24q0,11.39-8.82,16.47l-.28.16-3.34,10.2Z"/><path class="cls-1" d="M755.17,640.19q8.8-5.1,8.81,6.28v45.25l-10,5.74v-18.7l-7.18,4.15v18.7l-10,5.74V662.11q0-11.37,8.81-16.47Zm-1.07-2.06a15.11,15.11,0,0,1-4.51,1.14,14.2,14.2,0,0,0-4,.9,11.92,11.92,0,0,0-4.69,5.38l-1.92.94.07-.82a16.48,16.48,0,0,1,2.35-7.73,13.69,13.69,0,0,1,4.65-4.85,14,14,0,0,1,5.51-1.8,12.07,12.07,0,0,0,4.84-1.41c1.28-.74,2.53-2.32,3.77-4.76l1.92-.94-.08.82a16.52,16.52,0,0,1-2.38,7.71,14.25,14.25,0,0,1-4.94,5Zm-7.25,35.47,7.18-4.15v-18.7a1.15,1.15,0,0,0-.39-1,.83.83,0,0,0-1,0l-4.48,2.58a2.57,2.57,0,0,0-1,1.08,3.05,3.05,0,0,0-.39,1.43Z"/><path class="cls-1" d="M805.57,622.46v34.73q0,11.38-8.81,16.47l-9.46,5.46q-8.82,5.08-8.82-6.29V638.1q0-11.37,8.82-16.47l9.46-5.45Q805.57,611.08,805.57,622.46Zm-10,41.86V626.74a1.15,1.15,0,0,0-.39-1,.83.83,0,0,0-1,0l-4.48,2.58a2.57,2.57,0,0,0-1,1.08,3.05,3.05,0,0,0-.39,1.43v37.57a1.14,1.14,0,0,0,.39,1,.81.81,0,0,0,1,0l4.48-2.59a2.6,2.6,0,0,0,1-1.07A3.08,3.08,0,0,0,795.62,664.32Z"/></g></g></svg>