<svg xmlns="http://www.w3.org/2000/svg" xmlns:xlink="http://www.w3.org/1999/xlink" viewBox="0 0 82.57 82.61"><defs><style>.cls-1,.cls-2{fill-rule:evenodd;}.cls-1{fill:url(#linear-gradient);}.cls-2{fill:#fefefe;}</style><linearGradient id="linear-gradient" x1="41.28" y1="5.3" x2="41.28" y2="75.31" gradientUnits="userSpaceOnUse"><stop offset="0" stop-color="#4e6abd"/><stop offset="1" stop-color="#3e51a0"/></linearGradient></defs><g id="Camada_2" data-name="Camada 2"><g id="_3" data-name="3"><path class="cls-1" d="M18.18,0H64.39A18.26,18.26,0,0,1,82.57,18.18V64.39A18.26,18.26,0,0,1,64.39,82.61H18.18A18.23,18.23,0,0,1,0,64.39V18.18A18.23,18.23,0,0,1,18.18,0Z"/><path class="cls-2" d="M45.26,32V28a2.1,2.1,0,0,1,2.2-2.37H53V17.05h-7.7c-8.53,0-10.44,6.33-10.44,10.4V32H30v9.94h5V66.72h9.94V41.89h7.37L52.58,38l.58-6Z"/></g></g></svg>