<svg xmlns="http://www.w3.org/2000/svg" xmlns:xlink="http://www.w3.org/1999/xlink" viewBox="0 0 206.04 206.15"><defs><style>.cls-1,.cls-2{fill-rule:evenodd;}.cls-1{fill:url(#linear-gradient);}.cls-2{fill:#fefefe;}</style><linearGradient id="linear-gradient" x1="103.02" y1="13.23" x2="103.02" y2="187.93" gradientUnits="userSpaceOnUse"><stop offset="0" stop-color="#4e6abd"/><stop offset="1" stop-color="#3e51a0"/></linearGradient></defs><g id="Camada_2" data-name="Camada 2"><g id="_3" data-name="3"><path class="cls-1" d="M45.36,0H160.68A45.54,45.54,0,0,1,206,45.36V160.68a45.57,45.57,0,0,1-45.36,45.47H45.36A45.5,45.5,0,0,1,0,160.68V45.36A45.48,45.48,0,0,1,45.36,0Z"/><path class="cls-2" d="M112.93,79.72v-10c0-4.77,3.22-5.91,5.51-5.91h13.91V42.56H113.14c-21.28,0-26,15.78-26,26V79.72H74.74v24.81H87.19v62H112v-62h18.37l.83-9.76,1.46-15Z"/></g></g></svg>