<svg xmlns="http://www.w3.org/2000/svg" xmlns:xlink="http://www.w3.org/1999/xlink" viewBox="0 0 82.61 82.61"><defs><style>.cls-1{fill-rule:evenodd;fill:url(#linear-gradient);}.cls-2{fill:#fff;}</style><linearGradient id="linear-gradient" x1="41.31" y1="1.39" x2="41.31" y2="80.26" gradientUnits="userSpaceOnUse"><stop offset="0" stop-color="#fec053"/><stop offset="0.33" stop-color="#f2203e"/><stop offset="0.65" stop-color="#b729a8"/><stop offset="1" stop-color="#5342d6"/></linearGradient></defs><g id="Camada_2" data-name="Camada 2"><g id="_3" data-name="3"><path class="cls-1" d="M18.18,0H64.43A18.25,18.25,0,0,1,82.61,18.18V64.39A18.25,18.25,0,0,1,64.43,82.61H18.18A18.25,18.25,0,0,1,0,64.39V18.18A18.25,18.25,0,0,1,18.18,0Z"/><path class="cls-2" d="M53.42,69.42H29.19a16,16,0,0,1-16-16V29.19a16,16,0,0,1,16-16H53.42a16,16,0,0,1,16,16V53.42A16,16,0,0,1,53.42,69.42ZM29.19,18A11.2,11.2,0,0,0,18,29.19V53.42A11.2,11.2,0,0,0,29.19,64.6H53.42A11.2,11.2,0,0,0,64.6,53.42V29.19A11.2,11.2,0,0,0,53.42,18Z"/><path class="cls-2" d="M41.31,55.7A14.4,14.4,0,1,1,55.7,41.31,14.41,14.41,0,0,1,41.31,55.7Zm0-24a9.58,9.58,0,1,0,9.57,9.58A9.58,9.58,0,0,0,41.31,31.73Z"/><path class="cls-2" d="M59.78,26.08a3.46,3.46,0,1,1-3.46-3.46A3.45,3.45,0,0,1,59.78,26.08Z"/></g></g></svg>