<svg xmlns="http://www.w3.org/2000/svg" xmlns:xlink="http://www.w3.org/1999/xlink" viewBox="0 0 82.57 82.61"><defs><style>.cls-1,.cls-2{fill-rule:evenodd;}.cls-1{fill:url(#linear-gradient);}.cls-2{fill:#fefefe;}</style><linearGradient id="linear-gradient" x1="41.28" y1="-0.91" x2="41.28" y2="78.05" gradientUnits="userSpaceOnUse"><stop offset="0" stop-color="#49bd60"/><stop offset="1" stop-color="#44a05e"/></linearGradient></defs><g id="Camada_2" data-name="Camada 2"><g id="_3" data-name="3"><path class="cls-1" d="M18.18,0H64.39A18.23,18.23,0,0,1,82.57,18.18V64.39A18.23,18.23,0,0,1,64.39,82.61H18.18A18.23,18.23,0,0,1,0,64.39V18.18A18.23,18.23,0,0,1,18.18,0Z"/><path class="cls-2" d="M41.72,59.82a20.52,20.52,0,0,1-11.27-3.37l-7.86,2.49,2.53-7.57a20.15,20.15,0,0,1-3.91-11.94,16,16,0,0,1,.13-2,20.52,20.52,0,0,1,40.85.37c0,.54,0,1.08,0,1.58A20.47,20.47,0,0,1,41.72,59.82ZM52.91,44.34c-.62-.29-3.53-1.74-4.08-2s-.95-.29-1.37.33S45.92,44.63,45.59,45s-.71.46-1.29.16a15.52,15.52,0,0,1-4.82-3,17.35,17.35,0,0,1-3.33-4.08c-.34-.62,0-.91.25-1.24a8.05,8.05,0,0,0,.91-1,1.11,1.11,0,0,0,.21-.25,4.82,4.82,0,0,0,.37-.71,1,1,0,0,0,0-1c-.12-.29-1.33-3.24-1.83-4.41s-1-1-1.33-1-.75,0-1.16,0a2.05,2.05,0,0,0-1.58.75,6.39,6.39,0,0,0-2.13,4.95,6.51,6.51,0,0,0,.34,2,12.9,12.9,0,0,0,2.12,4.11c.29.42,4.12,6.58,10.19,9s6.11,1.58,7.2,1.5,3.53-1.42,4-2.83A4.68,4.68,0,0,0,54,45c-.12-.21-.54-.38-1.12-.67ZM66.1,38.85a24.38,24.38,0,0,0-48.71-.46,9.13,9.13,0,0,0,0,1A24.23,24.23,0,0,0,20.84,52l-4.41,13L30,60.65A24.47,24.47,0,0,0,66.14,39.43c0-.2,0-.37,0-.58Z"/></g></g></svg>